<svg width="129" height="38" viewBox="0 0 129 38" fill="none" xmlns="http://www.w3.org/2000/svg">
<path fill-rule="evenodd" clip-rule="evenodd" d="M20.8749 18.2264V28.1129C20.8749 33.5486 16.1759 37.9995 10.4374 37.9995C6.40384 37.9995 2.82767 35.8725 1.03958 32.4457C0.540583 31.461 4.24151 29.7673 4.74051 30.7126C5.82167 32.8002 7.98401 34.1 10.4374 34.1C13.8889 34.1 16.6749 31.461 16.7581 28.2311V26.0647C14.97 27.3252 12.8077 28.1129 10.4374 28.1129C4.65734 28.1129 0 23.662 0 18.2264C0 12.7514 4.65734 8.33984 10.4374 8.33984C16.1759 8.33984 20.8749 12.7514 20.8749 18.2264ZM39.4416 26.035C40.418 25.5957 41.2796 24.9916 42.0263 24.1953L45.8459 25.4035C45.3289 26.1449 44.7258 26.8313 44.0079 27.4354C43.3186 28.0395 42.5719 28.5612 41.7391 29.0005C40.935 29.4399 40.0734 29.7694 39.1257 29.989C38.2067 30.2362 37.259 30.346 36.2538 30.346C33.066 30.346 30.3952 29.2477 28.1551 27.1059C25.915 24.9642 24.7663 22.4105 24.7663 19.3626C24.7663 16.3422 25.8863 13.7611 28.1551 11.6194C30.3664 9.45015 33.066 8.37927 36.2538 8.37927C37.8333 8.37927 39.3267 8.65385 40.7339 9.23048C42.1124 9.8071 43.3473 10.6034 44.4099 11.6194L41.6529 14.2005C40.1596 12.7726 38.379 12.0587 36.2538 12.0587C34.1573 12.0587 32.348 12.7452 30.826 14.2005C29.3326 15.6283 28.6146 17.3582 28.6146 19.3626C28.6146 21.3671 29.3326 23.1244 30.826 24.5523C32.3193 25.9801 34.1573 26.6666 36.2538 26.6666C37.4025 26.6666 38.4651 26.4469 39.4416 26.035ZM16.7581 18.2264C16.7581 21.4957 13.8889 24.2135 10.4374 24.2135C6.94443 24.2135 4.11676 21.4957 4.11676 18.2264C4.11676 14.9177 6.94443 12.2393 10.4374 12.2393C13.8889 12.2393 16.7581 14.9177 16.7581 18.2264Z" fill="#3DC7BE"/>
<path fill-rule="evenodd" clip-rule="evenodd" d="M67.8292 11.1546C69.0607 11.1546 70.0283 12.0712 70.0283 13.196C70.0283 14.3625 69.0607 15.2791 67.8292 15.2791H63.9587V29.9854C63.9587 31.1519 59.6044 31.1519 59.6044 29.9854V15.2791H57.1854C55.9979 15.2791 55.0303 14.3625 55.0303 13.196C55.0303 12.0712 55.9979 11.1546 57.1854 11.1546H59.6044C59.5605 8.19668 60.704 5.48871 62.8152 3.48899C64.0027 2.36414 65.3661 1.53091 66.9495 1.03098C68.0491 0.61437 69.5445 4.53051 68.4009 4.90546C67.4773 5.19709 66.6416 5.69702 65.8939 6.40526C64.5745 7.65509 63.9587 9.27987 63.9587 11.1546H67.8292ZM74.8063 30.0271V2.90573C74.8063 1.78088 79.1606 1.78088 79.1606 2.90573V30.0271C79.1606 31.1936 74.8063 31.1936 74.8063 30.0271ZM106.018 20.5466C106.018 13.7559 100.3 10.0897 94.9782 10.0897C88.8646 10.0897 83.9386 14.7557 83.9386 20.5466C83.9386 26.2958 88.8646 31.0035 94.9782 31.0035L95.0843 31.0036C96.7026 31.0045 98.9112 31.0057 101.751 29.2121C102.763 28.5872 100.916 24.8794 99.9042 25.5043C97.793 26.7958 95.9898 26.8791 94.9782 26.8791C92.0313 26.8791 89.5683 25.0877 88.6447 22.588H103.819C105.05 22.588 106.018 21.6715 106.018 20.5466ZM127.528 27.8328L121.723 20.7087L127.528 13.5847C128.276 12.6681 124.845 10.1268 124.098 11.0434L118.952 17.3342L113.806 11.0434C113.058 10.1268 109.627 12.6681 110.375 13.5847L116.181 20.7087L110.375 27.8328C109.627 28.7493 111.607 31.1657 112.09 31.1657C112.75 31.1657 113.366 30.874 113.806 30.3741L118.952 24.0833L124.098 30.3741C124.537 30.874 125.153 31.1657 125.813 31.1657C126.297 31.1657 128.276 28.7493 127.528 27.8328ZM95.0661 14.5216C92.1193 14.5216 89.6563 16.313 88.7327 18.771H101.444C100.52 15.8547 97.7051 14.5216 95.0661 14.5216Z" fill="#F75940"/>
<path fill-rule="evenodd" clip-rule="evenodd" d="M67.8292 11.1546C69.0607 11.1546 70.0283 12.0712 70.0283 13.196C70.0283 14.3625 69.0607 15.2791 67.8292 15.2791H63.9587V29.9854C63.9587 31.1519 59.6044 31.1519 59.6044 29.9854V15.2791H57.1854C55.9979 15.2791 55.0303 14.3625 55.0303 13.196C55.0303 12.0712 55.9979 11.1546 57.1854 11.1546H59.6044C59.5605 8.19668 60.704 5.48871 62.8152 3.48899C64.0027 2.36414 65.3661 1.53091 66.9495 1.03098C68.0491 0.61437 69.5445 4.53051 68.4009 4.90546C67.4773 5.19709 66.6416 5.69702 65.8939 6.40526C64.5745 7.65509 63.9587 9.27987 63.9587 11.1546H67.8292V11.1546ZM74.8063 30.0271V2.90573C74.8063 1.78088 79.1606 1.78088 79.1606 2.90573V30.0271C79.1606 31.1936 74.8063 31.1936 74.8063 30.0271V30.0271ZM106.018 20.5466C106.018 13.7559 100.3 10.0897 94.9782 10.0897C88.8646 10.0897 83.9386 14.7557 83.9386 20.5466C83.9386 26.2958 88.8646 31.0035 94.9782 31.0035L95.0843 31.0036C96.7026 31.0045 98.9112 31.0057 101.751 29.2121C102.763 28.5872 100.916 24.8794 99.9042 25.5043C97.793 26.7958 95.9898 26.8791 94.9782 26.8791C92.0313 26.8791 89.5683 25.0877 88.6447 22.588H103.819C105.05 22.588 106.018 21.6715 106.018 20.5466V20.5466ZM127.528 27.8328L121.723 20.7087L127.528 13.5847C128.276 12.6681 124.845 10.1268 124.098 11.0434L118.952 17.3342L113.806 11.0434C113.058 10.1268 109.627 12.6681 110.375 13.5847L116.181 20.7087L110.375 27.8328C109.627 28.7493 111.607 31.1657 112.09 31.1657C112.75 31.1657 113.366 30.874 113.806 30.3741L118.952 24.0833L124.098 30.3741C124.537 30.874 125.153 31.1657 125.813 31.1657C126.297 31.1657 128.276 28.7493 127.528 27.8328V27.8328ZM95.0661 14.5216C92.1193 14.5216 89.6563 16.313 88.7327 18.771H101.444C100.52 15.8547 97.7051 14.5216 95.0661 14.5216V14.5216Z" stroke="#F75940" stroke-width="0.799681"/>
<path fill-rule="evenodd" clip-rule="evenodd" d="M50.6949 18.3248L46.4598 14.04C46.3041 13.8821 46.0828 13.8441 45.8923 13.9433C45.7027 14.0425 45.582 14.2604 45.582 14.5003V23.0699C45.582 23.3098 45.7027 23.5278 45.8923 23.6269C46.0818 23.7273 46.3041 23.6881 46.4598 23.5302L50.6949 19.2454C50.8092 19.1291 50.8759 18.9614 50.8759 18.7851C50.8759 18.6088 50.8092 18.4411 50.6949 18.3248Z" fill="#F75940"/>
<path fill-rule="evenodd" clip-rule="evenodd" d="M42.6978 19.0826L38.4627 14.7978C38.307 14.6399 38.0858 14.6019 37.8952 14.7011C37.7057 14.8003 37.585 15.0182 37.585 15.2581V23.8277C37.585 24.0677 37.7057 24.2856 37.8952 24.3847C38.0847 24.4851 38.307 24.4459 38.4627 24.288L42.6978 20.0032C42.8121 19.8869 42.8788 19.7192 42.8788 19.5429C42.8788 19.3666 42.8121 19.1989 42.6978 19.0826Z" fill="#F75940"/>
</svg>
