<svg width="25" height="31" viewBox="0 0 25 31" fill="none" xmlns="http://www.w3.org/2000/svg">
<path d="M15.95 11.0371H4.75C4 11.0371 3.375 11.6571 3.375 12.4011C3.375 13.1451 4 13.7651 4.75 13.7651H15.975C16.725 13.7651 17.35 13.1451 17.35 12.4011C17.325 11.6323 16.725 11.0371 15.95 11.0371Z" fill="red"/>
<path d="M20.325 3.22461H4.75C4 3.22461 3.375 3.84461 3.375 4.58861C3.375 5.33261 4 5.95261 4.75 5.95261H20.35C21.1 5.95261 21.725 5.33261 21.725 4.58861C21.7 3.84461 21.1 3.22461 20.325 3.22461Z" fill="green"/>
<path d="M20.325 18.8223H4.75C4 18.8223 3.375 19.4423 3.375 20.1863C3.375 20.9303 4 21.5503 4.75 21.5503H20.35C21.1 21.5503 21.725 20.9303 21.725 20.1863C21.7 19.4423 21.1 18.8223 20.325 18.8223Z" fill="black"/>
</svg>
