<svg width="182" height="149" viewBox="0 0 182 149" fill="none" xmlns="http://www.w3.org/2000/svg">
<path d="M168.374 41.4951C171.517 41.4951 174.063 38.9477 174.063 35.8052C174.063 32.6627 171.517 30.1152 168.374 30.1152C165.232 30.1152 162.684 32.6627 162.684 35.8052C162.684 38.9477 165.232 41.4951 168.374 41.4951Z" fill="#EAEEF9"/>
<path d="M176.702 19.1505C178.849 19.1505 180.588 17.4108 180.588 15.2647C180.588 13.1186 178.849 11.3789 176.702 11.3789C174.557 11.3789 172.816 13.1186 172.816 15.2647C172.816 17.4108 174.557 19.1505 176.702 19.1505Z" fill="#EAEEF9"/>
<path d="M89.9665 141C128.825 141 160.327 109.497 160.327 70.4998C160.327 31.5028 128.825 0 89.9665 0C51.1083 0 19.6055 31.5028 19.6055 70.4998C19.6055 109.497 51.1083 141 89.9665 141Z" fill="#EAEEF9"/>
<path d="M14.8858 45.5197C17.0319 45.5197 18.7716 43.7799 18.7716 41.6339C18.7716 39.4878 17.0319 37.748 14.8858 37.748C12.7397 37.748 11 39.4878 11 41.6339C11 43.7799 12.7397 45.5197 14.8858 45.5197Z" fill="#EAEEF9"/>
<path d="M22.0993 130.039C26.0849 130.039 29.3158 126.808 29.3158 122.822C29.3158 118.836 26.0849 115.605 22.0993 115.605C18.1137 115.605 14.8828 118.836 14.8828 122.822C14.8828 126.808 18.1137 130.039 22.0993 130.039Z" fill="#EAEEF9"/>
<g filter="url(#filter0_d_3836_4906)">
<path d="M145.916 115.005H34.2915C27.4999 115.005 22.1016 109.606 22.1016 102.815V38.5571C22.1016 31.7656 27.4999 26.3672 34.2915 26.3672H145.916C152.706 26.3672 158.105 31.7656 158.105 38.5571V102.815C158.105 109.606 152.706 115.005 145.916 115.005Z" fill="url(#paint0_linear_3836_4906)"/>
</g>
<path d="M56.5797 94.9786H38.8175C37.2503 94.9786 36.0312 93.7597 36.0312 92.1925C36.0312 90.6251 37.2503 89.4062 38.8175 89.4062H56.5797C58.1471 89.4062 59.366 90.6251 59.366 92.1925C59.366 93.7597 58.1471 94.9786 56.5797 94.9786Z" fill="#D5DDEA"/>
<path d="M85.3142 94.9786H67.5519C65.9847 94.9786 64.7656 93.7597 64.7656 92.1925C64.7656 90.6251 65.9847 89.4062 67.5519 89.4062H85.3142C86.8815 89.4062 88.1005 90.6251 88.1005 92.1925C88.1005 93.7597 86.8815 94.9786 85.3142 94.9786Z" fill="#D5DDEA"/>
<path d="M114.051 94.9786H96.2882C94.721 94.9786 93.502 93.7597 93.502 92.1925C93.502 90.6251 94.721 89.4062 96.2882 89.4062H114.051C115.618 89.4062 116.837 90.6251 116.837 92.1925C116.837 93.7597 115.618 94.9786 114.051 94.9786Z" fill="#D5DDEA"/>
<path d="M142.783 94.9786H125.021C123.453 94.9786 122.234 93.7597 122.234 92.1925C122.234 90.6251 123.453 89.4062 125.021 89.4062H142.783C144.35 89.4062 145.57 90.6251 145.57 92.1925C145.57 93.7597 144.35 94.9786 142.783 94.9786Z" fill="#D5DDEA"/>
<path d="M136.339 61.5453C142.109 61.5453 146.788 56.8673 146.788 51.0968C146.788 45.3263 142.109 40.6484 136.339 40.6484C130.568 40.6484 125.891 45.3263 125.891 51.0968C125.891 56.8673 130.568 61.5453 136.339 61.5453Z" fill="#989FB0"/>
<path d="M122.581 61.5453C128.352 61.5453 133.03 56.8673 133.03 51.0968C133.03 45.3263 128.352 40.6484 122.581 40.6484C116.811 40.6484 112.133 45.3263 112.133 51.0968C112.133 56.8673 116.811 61.5453 122.581 61.5453Z" fill="#D5DDEA"/>
<path d="M58.1471 64.854H38.6433C37.2503 64.854 36.0312 63.6351 36.0312 62.2419V49.7039C36.0312 48.3107 37.2503 47.0918 38.6433 47.0918H57.9729C59.366 47.0918 60.585 48.3107 60.585 49.7039V62.2419C60.7592 63.6351 59.5402 64.854 58.1471 64.854Z" fill="#D5DDEA"/>
<path d="M124.688 118.566L147.362 82.6815C149.829 79.3145 154.996 79.3145 157.464 82.6815L180.137 118.566C182.527 121.783 180.137 126.347 176.05 126.347H128.853C124.688 126.272 122.298 121.783 124.688 118.566Z" fill="url(#paint1_linear_3836_4906)"/>
<path d="M152.416 91.8672C150.255 91.8672 148.574 93.7664 148.735 95.996L149.936 109.373C150.015 110.695 151.135 111.768 152.416 111.768C153.697 111.768 154.817 110.695 154.896 109.373L156.096 95.996C156.257 93.6838 154.576 91.8672 152.416 91.8672Z" fill="white"/>
<path d="M152.414 114.246C150.814 114.246 149.533 115.567 149.533 117.219C149.533 118.87 150.814 120.192 152.414 120.192C154.014 120.192 155.295 118.87 155.295 117.219C155.295 115.567 154.014 114.246 152.414 114.246Z" fill="white"/>
<defs>
<filter id="filter0_d_3836_4906" x="0.101562" y="15.3672" width="180.004" height="132.637" filterUnits="userSpaceOnUse" color-interpolation-filters="sRGB">
<feFlood flood-opacity="0" result="BackgroundImageFix"/>
<feColorMatrix in="SourceAlpha" type="matrix" values="0 0 0 0 0 0 0 0 0 0 0 0 0 0 0 0 0 0 127 0" result="hardAlpha"/>
<feOffset dy="11"/>
<feGaussianBlur stdDeviation="11"/>
<feColorMatrix type="matrix" values="0 0 0 0 0.397708 0 0 0 0 0.47749 0 0 0 0 0.575 0 0 0 0.27 0"/>
<feBlend mode="normal" in2="BackgroundImageFix" result="effect1_dropShadow_3836_4906"/>
<feBlend mode="normal" in="SourceGraphic" in2="effect1_dropShadow_3836_4906" result="shape"/>
</filter>
<linearGradient id="paint0_linear_3836_4906" x1="90.0591" y1="24.317" x2="90.0591" y2="115.96" gradientUnits="userSpaceOnUse">
<stop stop-color="#FDFEFF"/>
<stop offset="0.9964" stop-color="#ECF0F5"/>
</linearGradient>
<linearGradient id="paint1_linear_3836_4906" x1="123.712" y1="104.466" x2="181.099" y2="104.466" gradientUnits="userSpaceOnUse">
<stop stop-color="#B0BACC"/>
<stop offset="1" stop-color="#969EAE"/>
</linearGradient>
</defs>
</svg>
